<svg xmlns="http://www.w3.org/2000/svg" viewBox="0 0 64 64" role="img" aria-label="Google Calendar">
  <defs>
    <clipPath id="r">
      <rect x="6" y="6" width="52" height="52" rx="12"/>
    </clipPath>
  </defs>
  <g clip-path="url(#r)">
    <rect x="6" y="6" width="52" height="52" rx="12" fill="#ffffff"/>
    <rect x="6" y="6" width="52" height="14" fill="#4285F4"/>
    <rect x="6" y="20" width="52" height="38" fill="#ffffff"/>
    <rect x="6" y="20" width="52" height="38" fill="#34A853" opacity="0.06"/>
    <rect x="6" y="20" width="52" height="38" fill="#FBBC05" opacity="0.06"/>
    <rect x="6" y="20" width="52" height="38" fill="#EA4335" opacity="0.06"/>
    <rect x="16" y="10" width="6" height="12" rx="3" fill="#ffffff"/>
    <rect x="42" y="10" width="6" height="12" rx="3" fill="#ffffff"/>
    <path d="M20 58h-2a12 12 0 0 1-12-12V22h52v24a12 12 0 0 1-12 12H20z" fill="#ffffff"/>
    <path d="M44 46H22c-1.1 0-2-.9-2-2V30c0-1.1.9-2 2-2h22c1.1 0 2 .9 2 2v14c0 1.1-.9 2-2 2z" fill="#1A73E8"/>
    <path d="M30.2 41.7V32.8h2.9c1.2 0 2.1.3 2.8 1 .7.6 1 1.5 1 2.7 0 1.7-.6 2.9-1.8 3.5l2 2.7h-2.3l-1.7-2.3h-1.2v2.3h-1.7zm1.7-7.4v3.3h1.2c1.1 0 1.7-.6 1.7-1.7 0-1.1-.6-1.6-1.7-1.6h-1.2z" fill="#ffffff"/>
  </g>
  <rect x="6" y="6" width="52" height="52" rx="12" fill="none" stroke="#E5E7EB"/>
</svg>
